<svg width="20" height="20" viewBox="0 0 20 20" fill="none" xmlns="http://www.w3.org/2000/svg">
<path fill-rule="evenodd" clip-rule="evenodd" d="M8.74432 10.1086C8.66923 10.0336 8.62704 9.93181 8.62704 9.82566V8.2184C8.62704 7.86213 9.05772 7.68362 9.30975 7.93543L19.8444 18.4604C19.9195 18.5354 19.9617 18.6372 19.9617 18.7433V19.5988C19.9617 19.8202 19.7818 19.9995 19.5605 19.9988L1.00215 19.943L0.431825 19.941C0.21145 19.9403 0.0332031 19.7614 0.0332031 19.541V18.9791C0.0332031 17.0562 0.323396 15.1458 0.898702 13.3107C1.47351 11.4775 2.32824 9.74071 3.42639 8.16407C3.87263 7.5235 4.35809 6.91037 4.87994 6.32952C5.33756 5.82013 5.82253 5.33534 6.33237 4.87825C7.92996 3.44639 9.7633 2.29309 11.7462 1.47287C14.0464 0.521468 16.5034 0.0361853 18.9926 0.0361853H19.5617C19.7826 0.0361853 19.9617 0.215271 19.9617 0.436185V12.1345C19.9617 12.3554 19.7826 12.5344 19.5617 12.5344H16.8342C16.7281 12.5344 16.6265 12.4924 16.5515 12.4174L11.8257 7.69659C11.6615 7.53256 11.6702 7.26213 11.8587 7.12682C12.2278 6.86201 12.6239 6.66065 13.0555 6.50027C13.1971 6.44769 13.3553 6.4862 13.4621 6.59291L17.3574 10.4843C17.4306 10.5574 17.5298 10.5985 17.6333 10.5985V10.5985C17.849 10.5985 18.0238 10.4237 18.0238 10.2081V2.06415C18.0238 2.02885 17.994 2.00083 17.9588 2.00291V2.00291C16.075 2.11517 14.2237 2.53604 12.4798 3.25772C10.736 3.97939 9.125 4.99459 7.70833 6.23988C7.18982 6.69561 6.69879 7.18287 6.24055 7.69919C5.71759 8.28857 5.23571 8.91419 4.80358 9.57293C3.92596 10.9106 3.22963 12.36 2.74565 13.885C2.32713 15.2034 2.08384 16.5732 2.00155 17.9535V17.9535C1.99946 17.9886 2.02732 18.0183 2.06249 18.0184L15.7347 18.0595C16.0917 18.0606 16.2712 17.6289 16.0186 17.3766L8.74432 10.1086Z" fill="#121212"/>
<path fill-rule="evenodd" clip-rule="evenodd" d="M0 6.01802C0 6.42257 0.548903 6.58194 0.780789 6.25045C2.27034 4.12109 4.12474 2.2676 6.25305 0.781528C6.58497 0.549765 6.4257 1.7241e-05 6.02087 1.7241e-05H0.4C0.179086 1.7241e-05 0 0.179103 0 0.400017V6.01802Z" fill="#121212"/>
</svg>
